<?xml version="1.0" encoding="UTF-8"?>
<svg xmlns="http://www.w3.org/2000/svg" width="960" height="540" viewBox="0 0 960 540" fill="none">
  <rect width="960" height="540" rx="12" fill="#0f1419"/>
  <rect x="24" y="24" width="912" height="48" rx="8" fill="#1a2332"/>
  <circle cx="48" cy="48" r="6" fill="#ef4444"/>
  <circle cx="68" cy="48" r="6" fill="#eab308"/>
  <circle cx="88" cy="48" r="6" fill="#22c55e"/>
  <text x="120" y="54" fill="#94a3b8" font-family="system-ui,sans-serif" font-size="13">AI Cost Center Companion</text>
  <rect x="24" y="88" width="200" height="428" rx="8" fill="#1a2332"/>
  <rect x="44" y="108" width="160" height="12" rx="4" fill="#6366f1"/>
  <rect x="44" y="136" width="120" height="8" rx="4" fill="#334155"/>
  <rect x="44" y="168" width="160" height="8" rx="4" fill="#334155" opacity="0.6"/>
  <rect x="44" y="188" width="140" height="8" rx="4" fill="#334155" opacity="0.6"/>
  <rect x="44" y="208" width="150" height="8" rx="4" fill="#334155" opacity="0.6"/>
  <rect x="240" y="88" width="696" height="120" rx="8" fill="#1a2332"/>
  <text x="264" y="124" fill="#e2e8f0" font-family="system-ui,sans-serif" font-size="14" font-weight="600">Total Cursor spend</text>
  <text x="264" y="168" fill="#f8fafc" font-family="system-ui,sans-serif" font-size="36" font-weight="700">$847.32</text>
  <text x="264" y="192" fill="#22c55e" font-family="system-ui,sans-serif" font-size="12">82% attributed - 12% unmapped - 6% unattributed</text>
  <rect x="240" y="224" width="696" height="292" rx="8" fill="#1a2332"/>
  <text x="264" y="256" fill="#e2e8f0" font-family="system-ui,sans-serif" font-size="14" font-weight="600">Spend by cost center</text>
  <rect x="264" y="276" width="648" height="32" rx="6" fill="#0f1419"/>
  <rect x="276" y="284" width="280" height="16" rx="4" fill="#6366f1" opacity="0.9"/>
  <text x="276" y="328" fill="#94a3b8" font-family="system-ui,sans-serif" font-size="11">Platform Engineering</text>
  <rect x="264" y="340" width="648" height="32" rx="6" fill="#0f1419"/>
  <rect x="276" y="348" width="180" height="16" rx="4" fill="#8b5cf6" opacity="0.9"/>
  <text x="276" y="392" fill="#94a3b8" font-family="system-ui,sans-serif" font-size="11">Client Alpha</text>
  <rect x="264" y="404" width="648" height="32" rx="6" fill="#0f1419"/>
  <rect x="276" y="412" width="120" height="16" rx="4" fill="#06b6d4" opacity="0.9"/>
  <text x="276" y="456" fill="#94a3b8" font-family="system-ui,sans-serif" font-size="11">Internal Tools</text>
</svg>
