<svg xmlns="http://www.w3.org/2000/svg" width="960" height="540" viewBox="0 0 960 540" fill="none">
  <rect width="960" height="540" rx="12" fill="#fafaf9"/>
  <rect x="24" y="24" width="912" height="56" rx="8" fill="#fff" stroke="#e7e5e4"/>
  <text x="48" y="58" fill="#1c1917" font-family="system-ui,sans-serif" font-size="16" font-weight="600">Journey Planning Hub</text>
  <text x="820" y="58" fill="#78716c" font-family="system-ui,sans-serif" font-size="12">PI 2026.2 · Draft</text>
  <rect x="24" y="96" width="180" height="416" rx="8" fill="#fff" stroke="#e7e5e4"/>
  <text x="44" y="128" fill="#78716c" font-family="system-ui,sans-serif" font-size="10" letter-spacing="1">MODULES</text>
  <rect x="36" y="140" width="156" height="32" rx="6" fill="#1c1917"/>
  <text x="52" y="161" fill="#fafaf9" font-family="system-ui,sans-serif" font-size="12">Rank board</text>
  <rect x="36" y="184" width="156" height="28" rx="6" fill="#f5f5f4"/>
  <text x="52" y="203" fill="#57534e" font-family="system-ui,sans-serif" font-size="12">Capacity</text>
  <rect x="36" y="220" width="156" height="28" rx="6" fill="#f5f5f4"/>
  <text x="52" y="239" fill="#57534e" font-family="system-ui,sans-serif" font-size="12">Readiness</text>
  <rect x="220" y="96" width="716" height="416" rx="8" fill="#fff" stroke="#e7e5e4"/>
  <text x="244" y="132" fill="#1c1917" font-family="system-ui,sans-serif" font-size="14" font-weight="600">Source train ’ Delivery rank</text>
  <rect x="244" y="152" width="668" height="40" rx="6" fill="#fafaf9" stroke="#e7e5e4"/>
  <text x="260" y="177" fill="#1c1917" font-family="system-ui,sans-serif" font-size="12">#1 · FEAT-142 · Platform API hardening</text>
  <rect x="244" y="204" width="668" height="40" rx="6" fill="#fafaf9" stroke="#e7e5e4"/>
  <text x="260" y="229" fill="#1c1917" font-family="system-ui,sans-serif" font-size="12">#2 · FEAT-089 · Design system tokens v2</text>
  <rect x="244" y="256" width="668" height="40" rx="6" fill="#fef3c7" stroke="#fcd34d"/>
  <text x="260" y="281" fill="#92400e" font-family="system-ui,sans-serif" font-size="12">#3 · FEAT-201 · Needs discipline review</text>
  <rect x="244" y="340" width="200" height="36" rx="8" fill="#1c1917"/>
  <text x="344" y="363" text-anchor="middle" fill="#fafaf9" font-family="system-ui,sans-serif" font-size="12" font-weight="600">Commit to Jira</text>
  <text x="480" y="520" fill="#a8a29e" font-family="system-ui,sans-serif" font-size="11">Preview illustration  mock data only</text>
</svg>
