<svg xmlns="http://www.w3.org/2000/svg" width="960" height="540" viewBox="0 0 960 540" fill="none">
  <rect width="960" height="540" rx="12" fill="#070b14"/>
  <rect x="0" y="0" width="960" height="540" fill="#c8dced" opacity="0.15"/>
  <ellipse cx="480" cy="270" rx="320" ry="200" fill="#f4ede2" opacity="0.2"/>
  <circle cx="320" cy="180" r="8" fill="#6366f1"/>
  <circle cx="520" cy="220" r="6" fill="#6366f1"/>
  <circle cx="640" cy="160" r="7" fill="#6366f1"/>
  <circle cx="400" cy="320" r="5" fill="#6366f1"/>
  <circle cx="580" cy="340" r="6" fill="#6366f1"/>
  <rect x="280" y="420" width="400" height="44" rx="22" fill="#0f1419" opacity="0.85"/>
  <text x="480" y="448" text-anchor="middle" fill="#94a3b8" font-family="system-ui,sans-serif" font-size="13">Search styles, cities, studios&</text>
  <rect x="24" y="24" width="120" height="28" rx="6" fill="#0f1419" opacity="0.7"/>
  <text x="84" y="43" text-anchor="middle" fill="#f5f5f4" font-family="system-ui,sans-serif" font-size="11" font-weight="600" letter-spacing="3">WEINKYOU</text>
  <rect x="720" y="80" width="216" height="380" rx="12" fill="#0f1419" opacity="0.92"/>
  <text x="744" y="112" fill="#e2e8f0" font-family="system-ui,sans-serif" font-size="13" font-weight="600">Studio detail</text>
  <rect x="744" y="128" width="168" height="100" rx="8" fill="#1a2332"/>
  <rect x="744" y="244" width="140" height="8" rx="4" fill="#334155"/>
  <rect x="744" y="264" width="120" height="8" rx="4" fill="#334155" opacity="0.6"/>
  <rect x="744" y="284" width="160" height="8" rx="4" fill="#334155" opacity="0.6"/>
  <text x="480" y="520" fill="#64748b" font-family="system-ui,sans-serif" font-size="11">Preview illustration  replace with /explore screenshot</text>
</svg>
